<svg xmlns="http://www.w3.org/2000/svg" width="65" height="65" viewBox="0 0 65 65" fill="none">
  <g clip-path="url(#clip0_36_256)">
    <path d="M43.3419 44.3659H41.1752C40.6712 44.3687 40.1711 44.2776 39.7005 44.0971C37.9793 43.4892 36.832 41.8579 36.8419 40.0326C36.8444 37.6404 38.783 35.7017 41.1752 35.6992H43.3419C45.7351 35.6992 47.6752 37.6393 47.6752 40.0326C47.6752 42.4258 45.7351 44.3659 43.3419 44.3659ZM41.1752 37.8659C39.9791 37.8673 39.0099 38.8365 39.0085 40.0326C39.0034 40.9459 39.5795 41.7616 40.442 42.0622C40.6757 42.1531 40.9244 42.1996 41.1752 42.1992H43.3419C44.5385 42.1992 45.5085 41.2292 45.5085 40.0326C45.5085 38.8359 44.5385 37.8659 43.3419 37.8659H41.1752Z" fill="#05092B"/>
    <path d="M42.291 50.8659H41.1751C38.7819 50.8659 36.8418 48.9258 36.8418 46.5326C36.8418 44.1393 38.7819 42.1992 41.1751 42.1992H42.291C44.6842 42.1992 46.6243 44.1393 46.6243 46.5326C46.6243 48.9258 44.6842 50.8659 42.291 50.8659ZM41.1751 44.3659C39.9785 44.3659 39.0085 45.3359 39.0085 46.5326C39.0085 47.7292 39.9785 48.6992 41.1751 48.6992H42.291C43.4876 48.6992 44.4576 47.7292 44.4576 46.5326C44.4576 45.3359 43.4876 44.3659 42.291 44.3659H41.1751Z" fill="#05092B"/>
    <path d="M14.0833 28.3596C13.485 28.3596 13 27.8745 13 27.2762V9.74788C13.0025 7.35569 14.9411 5.41706 17.3333 5.41455H28.5783C29.1766 5.41455 29.6617 5.89958 29.6617 6.49788C29.6617 7.09619 29.1766 7.58122 28.5783 7.58122H17.3333C16.1373 7.58259 15.168 8.55184 15.1667 9.74788V27.2762C15.1667 27.8745 14.6816 28.3596 14.0833 28.3596Z" fill="#05092B"/>
    <path d="M36.8333 54.115H17.3333C14.9412 54.1124 13.0026 52.1738 13 49.7816V36.37C13 35.7716 13.485 35.2866 14.0833 35.2866C14.6816 35.2866 15.1667 35.7716 15.1667 36.37V49.7816C15.168 50.9777 16.1373 51.9469 17.3333 51.9483H36.8333C38.0294 51.9469 38.9986 50.9777 39 49.7816V49.5866C39 48.9883 39.485 48.5033 40.0833 48.5033C40.6816 48.5033 41.1667 48.9883 41.1667 49.5866V49.7816C41.1641 52.1738 39.2255 54.1124 36.8333 54.115Z" fill="#05092B"/>
    <path d="M27.0875 65.0024H14.0876C12.2934 65.0004 10.8395 63.5465 10.8375 61.7524V60.6691C10.6555 59.28 10.0889 57.9695 9.20172 56.8853C8.99653 56.5738 8.79449 56.2664 8.60588 55.9612C8.13723 55.2005 7.73412 54.6256 7.39038 54.1342C6.15623 52.6206 5.47283 50.7328 5.45219 48.7799C5.35588 47.4898 5.50192 44.7904 5.61935 42.6216C5.67352 41.6324 5.72086 40.7544 5.7357 40.1841C5.75682 39.3457 5.72302 36.6231 5.69128 33.9898L5.67438 32.6659C5.6602 30.8956 6.3511 29.1924 7.5946 27.9322C8.8381 26.6721 10.532 25.9586 12.3023 25.9492C13.8598 25.9616 15.3778 26.4408 16.66 27.3251C17.2977 27.7447 17.9901 28.0746 18.7177 28.3053C20.1694 28.704 21.6491 28.9927 23.1442 29.169C24.7684 29.3535 25.9975 30.7244 26.0042 32.3591V32.5511C26.0042 32.6092 25.9176 38.3761 18.4547 38.3936C17.0953 38.4967 12.2478 37.6794 10.9518 35.0875C10.6842 34.5523 10.9012 33.9015 11.4364 33.6339C11.9715 33.3663 12.6223 33.5832 12.8899 34.1184C13.6041 35.5467 17.4183 36.3247 18.2209 36.247C18.2862 36.2305 18.3536 36.2237 18.4209 36.2269C23.7762 36.2269 23.8375 32.7013 23.8375 32.5511V32.3591C23.83 31.8225 23.4223 31.3764 22.8885 31.3207C21.2797 31.1308 19.6876 30.8195 18.1257 30.3897C17.2151 30.109 16.3478 29.7035 15.5485 29.1847C14.6103 28.5015 13.4824 28.128 12.3218 28.1162H12.307C9.82539 28.134 7.82713 30.1584 7.84148 32.64L7.8573 33.9634C7.89218 36.7389 7.92501 39.3606 7.9028 40.2408C7.88698 40.8258 7.8378 41.7249 7.78363 42.739C7.66934 44.8459 7.52753 47.4681 7.61322 48.6192C7.60959 50.1821 8.15983 51.6958 9.16629 52.8916C9.53029 53.4116 9.9555 54.0199 10.4518 54.8245C10.6284 55.1117 10.8201 55.4016 11.0124 55.6952C12.1547 57.119 12.848 58.8503 13.0042 60.6691V61.7524C13.0048 62.3505 13.4895 62.8352 14.0876 62.8357H27.0875C27.6856 62.8352 28.1703 62.3505 28.1709 61.7524V59.5329C28.172 58.3646 28.8009 57.287 29.8176 56.7113C33.7161 54.5039 34.7815 52.5562 34.792 52.5367C35.0706 52.0121 35.718 51.8072 36.2478 52.076C36.7753 52.3442 36.9879 52.9877 36.7238 53.5173C36.5968 53.7702 35.358 56.0638 30.8846 58.5966C30.5471 58.7875 30.3382 59.1451 30.3375 59.5329V61.7524C30.3356 63.5465 28.8817 65.0004 27.0875 65.0024Z" fill="#05092B"/>
    <path d="M14.0833 28.3651C13.7965 28.3663 13.521 28.2533 13.3177 28.051C13.1145 27.8487 13.0001 27.5737 13 27.2869V12.9979C13 12.3996 13.485 11.9146 14.0833 11.9146H24.7C25.2983 11.9146 25.7833 12.3996 25.7833 12.9979C25.7833 13.5962 25.2983 14.0812 24.7 14.0812H15.1667V27.2762C15.1673 27.8757 14.6828 28.3627 14.0833 28.3651Z" fill="#05092B"/>
    <path d="M40.0833 44.5483C39.485 44.5483 39 44.0632 39 43.4649V43.0858C39 42.4875 39.485 42.0024 40.0833 42.0024C40.6816 42.0024 41.1667 42.4875 41.1667 43.0858V43.4649C41.1667 44.0632 40.6816 44.5483 40.0833 44.5483Z" fill="#05092B"/>
    <path d="M37.9167 47.6691H14.0833C13.485 47.6691 13 47.1841 13 46.5858V36.37C13 35.7716 13.485 35.2866 14.0833 35.2866C14.6816 35.2866 15.1667 35.7716 15.1667 36.37V45.5025H37.9167C38.515 45.5025 39 45.9875 39 46.5858C39 47.1841 38.515 47.6691 37.9167 47.6691Z" fill="#05092B"/>
    <path d="M40.0833 38.0438C39.485 38.0438 39 37.5588 39 36.9605V36.5921C39 35.9938 39.485 35.5088 40.0833 35.5088C40.6816 35.5088 41.1667 35.9938 41.1667 36.5921V36.9605C41.1667 37.5588 40.6816 38.0438 40.0833 38.0438Z" fill="#05092B"/>
    <path d="M27.0918 53.0855C25.2969 53.0855 23.8418 51.6304 23.8418 49.8354C23.8418 48.0405 25.2969 46.5854 27.0918 46.5854C28.8867 46.5854 30.3418 48.0405 30.3418 49.8354C30.3398 51.6296 28.8859 53.0835 27.0918 53.0855ZM27.0918 48.7521C26.4935 48.7521 26.0085 49.2371 26.0085 49.8354C26.0085 50.4338 26.4935 50.9188 27.0918 50.9188C27.6901 50.9188 28.1751 50.4338 28.1751 49.8354C28.1746 49.2374 27.6899 48.7527 27.0918 48.7521Z" fill="#05092B"/>
    <path d="M41.1667 36.8333C30.9954 36.8333 22.75 28.5879 22.75 18.4167C22.75 8.24542 30.9954 0 41.1667 0C51.3379 0 59.5833 8.24542 59.5833 18.4167C59.572 28.5832 51.3332 36.822 41.1667 36.8333ZM41.1667 2.16667C32.192 2.16667 24.9167 9.44204 24.9167 18.4167C24.9167 27.3913 32.192 34.6667 41.1667 34.6667C50.1413 34.6667 57.4167 27.3913 57.4167 18.4167C57.4067 9.44617 50.1372 2.17664 41.1667 2.16667Z" fill="#05092B"/>
    <path d="M47.5635 30.3331H32.6105C31.9597 30.3333 31.3426 30.0434 30.9274 29.5422C30.5259 29.0627 30.3588 28.4293 30.4714 27.8141C31.2478 24.3884 33.921 21.712 37.3459 20.9317C37.9249 20.781 38.5165 21.1281 38.6672 21.7071C38.818 22.2862 38.4708 22.8777 37.8918 23.0285C35.2794 23.5967 33.2234 25.6111 32.6021 28.2114L47.5635 28.1664C47.2841 26.8133 46.5594 25.5928 45.5051 24.6997C45.3782 24.5914 45.2375 24.4812 45.0968 24.3707C44.6265 24.0009 44.545 23.3198 44.9148 22.8494C45.2847 22.3791 45.9658 22.2976 46.4361 22.6674C46.598 22.7949 46.7598 22.9235 46.9236 23.0621C48.3551 24.2838 49.334 25.9515 49.7028 27.7969C49.8195 28.4167 49.6526 29.0562 49.2478 29.5399C48.8332 30.0427 48.2153 30.3337 47.5635 30.3331Z" fill="#05092B"/>
    <path d="M43.3455 24.9142C39.21 24.9199 35.4323 22.5701 33.6092 18.8582C31.7862 15.1462 32.2361 10.7201 34.7687 7.45088C35.1524 6.95726 35.7296 6.6521 36.3535 6.61292C36.9764 6.57031 37.5869 6.80086 38.0261 7.24451L50.1753 19.3924C50.6158 19.8348 50.8453 20.445 50.8056 21.0681C50.766 21.6911 50.4609 22.2672 49.9679 22.6503C48.0737 24.1206 45.7433 24.9172 43.3455 24.9142ZM36.4939 8.77569C33.8166 12.2223 34.1214 17.1225 37.2051 20.2108C40.2889 23.2991 45.1886 23.6111 48.6392 20.9388L49.4093 20.1581L48.6434 20.9241L36.4939 8.77569Z" fill="#05092B"/>
    <path d="M48.1849 13.0029C46.6625 13.0026 45.2902 12.0855 44.7076 10.679C44.125 9.27255 44.4469 7.65363 45.5231 6.57697C47.0124 5.15403 49.3574 5.15403 50.8466 6.57697C51.9229 7.65363 52.2448 9.27255 51.6622 10.679C51.0796 12.0855 49.7073 13.0026 48.1849 13.0029ZM48.1849 7.64037C47.5387 7.64042 46.9562 8.02967 46.7089 8.62664C46.4616 9.2236 46.5982 9.91077 47.055 10.3678C47.6874 10.9709 48.6821 10.9711 49.3148 10.3683V10.3672C49.7718 9.91037 49.9085 9.22317 49.6611 8.6262C49.4138 8.02923 48.8311 7.64011 48.1849 7.64037Z" fill="#05092B"/>
    <path d="M43.3331 15.167C42.895 15.1669 42.5001 14.903 42.3325 14.4982C42.1648 14.0935 42.2575 13.6276 42.5672 13.3178L45.5139 10.3711C45.7861 10.0904 46.1884 9.97825 46.5665 10.0775C46.9447 10.1768 47.24 10.4721 47.3393 10.8502C47.4386 11.2284 47.3264 11.6307 47.0458 11.9029L44.0992 14.8496C43.8962 15.0531 43.6205 15.1674 43.3331 15.167Z" fill="#05092B"/>
  </g>
  <defs>
    <clipPath id="clip0_36_256">
      <rect width="65" height="65" fill="white"/>
    </clipPath>
  </defs>
</svg>