<svg xmlns="http://www.w3.org/2000/svg" width="63" height="65" viewBox="0 0 63 65" fill="none">
  <g clip-path="url(#clip0_36_238)">
    <path d="M5.27957 64.9902C3.53842 65.1358 1.91756 64.0608 1.31866 62.3633C-0.555864 57.4016 7.94978 48.3317 13.1869 43.3663C13.6134 42.962 14.2759 42.9918 14.6667 43.433C15.0575 43.8741 15.0287 44.5595 14.6023 44.9638C6.72663 52.4309 2.27802 58.9493 3.26796 61.5703C3.89787 63.2123 5.62107 63.0461 8.38333 62.2035C9.39579 61.8993 10.396 61.5688 11.3972 61.2381C13.4915 60.5035 15.6232 59.8887 17.7828 59.3965C21.6856 58.6188 25.6626 58.3135 29.6336 58.4867L31.1676 58.4975C31.2087 58.4975 31.2497 58.5002 31.2904 58.5054C31.3738 58.4949 31.4582 58.4949 31.5417 58.5054C31.5818 58.5001 31.6222 58.4975 31.6626 58.4975L33.1966 58.4867C37.168 58.3135 41.1453 58.6189 45.0485 59.3967C47.2077 59.8888 49.3391 60.5036 51.433 61.2384C52.4342 61.569 53.4344 61.8992 54.4428 62.2025C57.2111 63.0484 58.9343 63.2129 59.5643 61.5662C60.5522 58.9499 56.1036 52.4314 48.2279 44.9644C47.8015 44.5601 47.7727 43.8747 48.1635 43.4336C48.5543 42.9925 49.2168 42.9626 49.6433 43.3669C54.8804 48.3324 63.3861 57.4022 61.5135 62.3592C60.0521 66.1709 55.8684 64.8966 53.8537 64.282C52.833 63.9752 51.8145 63.6392 50.7958 63.3029C48.7749 62.5933 46.7179 61.9986 44.6342 61.5212C40.8728 60.7698 37.039 60.4789 33.2119 60.6545L31.7229 60.6642C31.5177 60.6705 31.3125 60.6705 31.1073 60.6642L29.6183 60.6534C25.7915 60.4783 21.9581 60.7692 18.197 61.52C16.1129 61.9977 14.0557 62.5926 12.0344 63.3022C11.0157 63.6386 9.9972 63.9745 8.97239 64.2828C7.77956 64.6964 6.53646 64.9345 5.27957 64.9902Z" fill="#05092B"/>
    <path d="M31.4137 53.0837C19.708 53.0832 9.55238 44.7234 6.92274 32.9237C4.29309 21.1239 9.88573 9.00832 20.4097 3.70631C20.7473 3.52674 21.1524 3.55024 21.4685 3.76774C21.7846 3.98523 21.9622 4.36264 21.9326 4.75416C21.903 5.14568 21.6709 5.48998 21.326 5.65404C11.0896 10.8106 6.02907 22.9289 9.41644 34.1737C12.8038 45.4185 23.6232 52.4176 34.8792 50.6456C46.1352 48.8736 54.4521 38.8619 54.4526 27.0837C54.4914 17.9545 49.4519 9.61599 41.5014 5.65404C41.1565 5.48998 40.9244 5.14568 40.8948 4.75416C40.8652 4.36264 41.0428 3.98523 41.3589 3.76774C41.675 3.55024 42.0801 3.52674 42.4177 3.70631C52.9417 9.00832 58.5343 21.1239 55.9047 32.9237C53.275 44.7234 43.1194 53.0832 31.4137 53.0837Z" fill="#05092B"/>
    <path d="M22.9873 9.41514C22.7129 9.41558 22.4412 9.36079 22.1871 9.25383C21.6634 9.03466 21.2497 8.60267 21.0427 8.05892L19.8773 5.03317C19.4502 3.95231 19.9345 2.7163 20.9685 2.24813C27.6301 -0.749378 35.1961 -0.749378 41.8577 2.24813C42.8913 2.71631 43.3758 3.95139 42.9499 5.0323L41.7841 8.05892C41.5771 8.60267 41.1633 9.03466 40.6397 9.25383C40.1013 9.4795 39.4974 9.46918 38.9666 9.22523C34.1513 7.04589 28.6749 7.04589 23.8596 9.22523C23.5847 9.35052 23.2876 9.4152 22.9873 9.41514ZM31.4131 2.16667C28.1066 2.16057 24.835 2.86449 21.805 4.23388L22.9873 7.25639C28.3452 4.80732 34.4519 4.80252 39.8134 7.24317L39.84 7.254L41.0038 4.2315C37.98 2.86239 34.7138 2.15921 31.4131 2.16667Z" fill="#05092B"/>
    <path d="M31.4126 42.2479C23.3155 42.2479 16.7515 35.4575 16.7515 27.0812C16.7515 18.7049 23.3155 11.9146 31.4126 11.9146C39.5097 11.9146 46.0737 18.7049 46.0737 27.0812C46.0646 35.4536 39.5059 42.2385 31.4126 42.2479ZM31.4126 14.0812C24.4722 14.0812 18.8459 19.9015 18.8459 27.0812C18.8459 34.2609 24.4722 40.0812 31.4126 40.0812C38.353 40.0812 43.9792 34.2609 43.9792 27.0812C43.9715 19.9048 38.3498 14.0892 31.4126 14.0812Z" fill="#05092B"/>
    <path d="M31.4133 36.8354C26.208 36.8354 21.9883 32.4702 21.9883 27.0854C21.9883 21.7007 26.208 17.3354 31.4133 17.3354C36.6186 17.3354 40.8383 21.7007 40.8383 27.0854C40.8325 32.4678 36.6162 36.8295 31.4133 36.8354ZM31.4133 19.5021C27.3647 19.5021 24.0827 22.8973 24.0827 27.0854C24.0827 31.2736 27.3647 34.6688 31.4133 34.6688C35.4618 34.6688 38.7438 31.2736 38.7438 27.0854C38.7392 22.8993 35.4599 19.507 31.4133 19.5021Z" fill="#05092B"/>
    <path d="M34.032 29.25C31.4293 29.25 29.3195 27.0674 29.3195 24.375C29.3195 21.6826 31.4293 19.5 34.032 19.5C36.6346 19.5 38.7445 21.6826 38.7445 24.375C38.7416 27.0662 36.6334 29.247 34.032 29.25ZM34.032 21.6667C32.586 21.6667 31.4139 22.8792 31.4139 24.375C31.4139 25.8708 32.586 27.0833 34.032 27.0833C35.4779 27.0833 36.65 25.8708 36.65 24.375C36.6485 22.8799 35.4772 21.6682 34.032 21.6667Z" fill="#05092B"/>
    <path d="M7.90547 33.543C7.34812 33.5428 6.88856 33.0911 6.85996 32.5153C6.83136 31.9395 7.24373 31.4414 7.79813 31.3821C9.91958 31.1387 11.5236 29.2819 11.5199 27.0738C11.5162 24.8658 9.90603 23.0148 7.78378 22.7789C7.50769 22.7483 7.2547 22.6053 7.08053 22.3816C6.90636 22.1579 6.8253 21.8717 6.85521 21.5861C6.88152 21.2989 7.01886 21.0349 7.23607 20.8539C7.45328 20.6729 7.73194 20.5903 8.00883 20.6249C11.1959 20.9801 13.6122 23.7622 13.6138 27.0782C13.6154 30.3942 11.2016 33.1788 8.0149 33.5372C7.97856 33.5412 7.94202 33.5431 7.90547 33.543Z" fill="#05092B"/>
    <path d="M54.9281 33.5404C54.8915 33.5406 54.855 33.5386 54.8186 33.5346C51.6319 33.1762 49.2182 30.3916 49.2197 27.0756C49.2213 23.7596 51.6377 20.9775 54.8247 20.6223C55.3959 20.565 55.9053 20.9939 55.967 21.5842C56.0286 22.1744 55.6196 22.706 55.0498 22.7763C52.9275 23.0122 51.3173 24.8632 51.3136 27.0713C51.31 29.2793 52.914 31.1361 55.0354 31.3795C55.5898 31.4388 56.0022 31.9369 55.9736 32.5127C55.945 33.0885 55.4854 33.5402 54.9281 33.5404Z" fill="#05092B"/>
  </g>
  <defs>
    <clipPath id="clip0_36_238">
      <rect width="62.8333" height="65" fill="white"/>
    </clipPath>
  </defs>
</svg>